<svg xmlns="http://www.w3.org/2000/svg" xmlns:xlink="http://www.w3.org/1999/xlink" width="319" zoomAndPan="magnify" viewBox="0 0 239.25 300.749996" height="401" preserveAspectRatio="xMidYMid meet" version="1.2"><defs><clipPath id="91e9b43234"><path d="M 132 0.34375 L 238 0.34375 L 238 162 L 132 162 Z M 132 0.34375 "/></clipPath><clipPath id="c3f8e7cb18"><path d="M 30.417969 203.210938 L 63.492188 203.210938 L 63.492188 238.769531 L 30.417969 238.769531 Z M 30.417969 203.210938 "/></clipPath><clipPath id="775270395c"><path d="M 0.417969 0.210938 L 33.492188 0.210938 L 33.492188 35.769531 L 0.417969 35.769531 Z M 0.417969 0.210938 "/></clipPath><clipPath id="efc539c92b"><rect x="0" width="34" y="0" height="36"/></clipPath></defs><g id="5e3f4d9964"><path style=" stroke:none;fill-rule:nonzero;fill:#cf0f47;fill-opacity:1;" d="M 237.988281 213.773438 L 237.988281 275.085938 L 23.382812 130.429688 C 8.792969 120.601562 0.046875 104.15625 0.046875 86.566406 L 0.046875 25.25 L 214.65625 169.90625 C 229.246094 179.738281 237.988281 196.179688 237.988281 213.773438 Z M 237.988281 213.773438 "/><path style=" stroke:none;fill-rule:nonzero;fill:#cf0f47;fill-opacity:1;" d="M 105.984375 210.5 L 105.984375 299.945312 L 27.214844 246.847656 C 10.226562 235.398438 0.046875 216.257812 0.046875 195.773438 L 0.046875 139.082031 L 105.984375 210.492188 Z M 105.984375 210.5 "/><g clip-rule="nonzero" clip-path="url(#91e9b43234)"><path style=" stroke:none;fill-rule:nonzero;fill:#cf0f47;fill-opacity:1;" d="M 237.980469 104.550781 L 237.980469 161.246094 L 132.046875 89.835938 L 132.046875 0.382812 L 210.816406 53.484375 C 227.804688 64.929688 237.980469 84.070312 237.980469 104.558594 Z M 237.980469 104.550781 "/></g><g clip-rule="nonzero" clip-path="url(#c3f8e7cb18)"><g transform="matrix(1,0,0,1,30,203)"><g clip-path="url(#efc539c92b)"><g clip-rule="nonzero" clip-path="url(#775270395c)"><path style=" stroke:none;fill-rule:nonzero;fill:#cf0f47;fill-opacity:1;" d="M 0.417969 0.210938 L 33.492188 0.210938 L 33.492188 35.738281 L 0.417969 35.738281 Z M 0.417969 0.210938 "/></g></g></g></g></g></svg>